# xmcd
#
# Track frame offsets: 
#        150
#        27306
#        48026
#        71235
#        100180
#        117867
#        139402
#        158794
#        176872
#        202652
#        219523
#        237484
#        257438
#        281546
#        301352
#        322181
#
# Disc length: 4596 seconds
#
# Revision: 0
# Processed by: cddbd v1.5.2PL0 Copyright (c) Steve Scherf et al.
# Submitted via: ExactAudioCopyFreeDBPlugin 1.0
#
DISCID=e911f210
DTITLE=吉幾三 - 芸能生活40周年企画 シングルパーフェクトコレクション DISC3
DYEAR=2006
DGENRE=Country
TTITLE0=娘に…
TTITLE1=情炎
TTITLE2=エレジー　～哀酒歌～
TTITLE3=岩木川
TTITLE4=哀のブルース
TTITLE5=旅の途中で…
TTITLE6=冬鴎
TTITLE7=冬の酒
TTITLE8=さくら咲く頃に
TTITLE9=漢江
TTITLE10=出張物語
TTITLE11=夢で抱かれて
TTITLE12=立佞武多
TTITLE13=風の子守唄
TTITLE14=北限海峡
TTITLE15=約束~君に逢いたくて
EXTD=
EXTT0=
EXTT1=
EXTT2=
EXTT3=
EXTT4=
EXTT5=
EXTT6=
EXTT7=
EXTT8=
EXTT9=
EXTT10=
EXTT11=
EXTT12=
EXTT13=
EXTT14=
EXTT15=
PLAYORDER=
